<?xml version="1.0" standalone="no"?>
<!DOCTYPE svg PUBLIC "-//W3C//DTD SVG 20010904//EN"
 "http://www.w3.org/TR/2001/REC-SVG-20010904/DTD/svg10.dtd">
<svg version="1.0" xmlns="http://www.w3.org/2000/svg"
 width="968.000000pt" height="424.000000pt" viewBox="0 0 968.000000 424.000000"
 preserveAspectRatio="xMidYMid meet">

<g transform="translate(0.000000,424.000000) scale(0.100000,-0.100000)"
fill="#000000" stroke="none">
<path d="M2923 2612 c-167 -60 -277 -234 -318 -507 -49 -329 26 -678 178 -829
63 -63 129 -95 210 -103 227 -21 394 146 463 462 33 157 28 432 -12 590 -41
160 -152 318 -261 371 -73 36 -184 43 -260 16z m141 -134 c14 -20 16 -91 16
-571 0 -477 -2 -552 -16 -578 -9 -19 -22 -29 -32 -27 -40 8 -42 30 -42 603 0
482 2 553 16 573 8 12 21 22 29 22 8 0 21 -10 29 -22z"/>
<path d="M6000 2615 c-136 -61 -200 -255 -155 -467 25 -119 79 -228 265 -533
109 -178 132 -252 90 -290 -43 -39 -90 15 -151 174 -40 106 -55 121 -117 121
-88 0 -88 2 -57 -216 15 -104 34 -199 42 -212 19 -30 73 -30 109 2 l28 23 54
-25 c45 -20 65 -24 112 -19 70 6 110 26 166 83 114 118 125 366 25 578 -21 47
-90 172 -152 278 -61 105 -123 219 -136 251 -27 67 -27 120 -1 125 27 5 63
-41 119 -152 28 -55 58 -107 67 -113 21 -17 103 -16 127 1 18 13 18 19 -10
196 -17 105 -35 188 -43 196 -22 23 -89 17 -116 -9 l-23 -23 -44 19 c-61 26
-154 32 -199 12z"/>
<path d="M1313 2603 c-8 -3 -13 -25 -13 -58 0 -48 3 -56 35 -82 l34 -28 91
-500 c51 -275 100 -549 111 -609 27 -155 28 -156 144 -156 87 0 96 2 109 22 8
14 32 147 57 321 24 163 46 297 49 297 3 0 26 -137 51 -305 26 -167 52 -311
59 -320 9 -11 35 -15 106 -15 87 0 95 2 109 24 9 14 60 267 125 627 61 332
110 607 110 610 0 3 16 22 35 42 28 28 35 44 35 75 0 21 -5 43 -12 50 -13 13
-252 18 -282 6 -11 -4 -16 -19 -16 -46 0 -34 6 -46 36 -74 l37 -33 -44 -293
-44 -292 -45 292 -44 291 27 25 c21 20 27 34 27 69 0 23 -5 48 -12 55 -17 17
-399 17 -416 0 -21 -21 -14 -96 12 -131 18 -24 30 -63 46 -152 l21 -120 -23
-172 c-12 -95 -24 -170 -27 -168 -5 6 -90 543 -91 573 0 13 9 35 20 49 23 29
27 102 8 121 -9 9 -69 12 -212 11 -111 0 -207 -3 -213 -6z"/>
<path d="M3542 2598 c-13 -13 -16 -75 -6 -103 4 -8 19 -22 35 -31 l29 -15 0
-537 c0 -295 -3 -547 -6 -560 -4 -12 -19 -29 -35 -38 -24 -12 -29 -21 -29 -54
0 -71 -5 -70 335 -70 167 0 310 3 319 6 20 8 30 46 52 203 17 120 17 124 -1
137 -25 18 -95 18 -121 -1 -14 -9 -31 -46 -48 -99 -29 -93 -45 -116 -82 -116
l-24 0 0 554 c0 305 3 561 6 570 3 9 12 16 19 16 24 0 45 36 45 78 0 71 -2 72
-254 72 -159 0 -225 -3 -234 -12z"/>
<path d="M4253 2603 c-8 -3 -13 -25 -13 -59 0 -48 3 -56 30 -75 16 -12 31 -28
34 -35 3 -7 57 -284 121 -616 64 -332 123 -613 131 -626 13 -20 22 -22 119
-22 100 0 106 1 115 22 5 13 62 289 125 613 64 325 118 599 121 611 6 23 74
92 74 75 0 -6 14 -17 30 -26 l30 -16 0 -543 0 -544 -35 -26 c-30 -23 -35 -33
-35 -67 0 -84 -19 -79 333 -79 172 0 318 4 325 9 8 5 24 73 40 170 26 160 26
163 7 177 -10 8 -36 14 -57 14 -54 0 -79 -29 -112 -128 -31 -91 -46 -112 -82
-112 l-24 0 0 280 0 280 29 0 c27 0 30 -4 41 -52 17 -71 33 -88 86 -88 72 0
74 6 74 210 0 205 1 204 -88 198 -45 -3 -47 -4 -59 -43 -6 -22 -14 -52 -17
-67 -5 -23 -12 -28 -36 -28 l-30 0 0 235 0 235 25 0 c30 0 56 -38 81 -115 20
-64 53 -95 103 -95 20 0 45 6 55 13 18 13 18 18 -4 138 -25 135 -35 170 -53
181 -19 12 -615 10 -622 -2 -5 -8 -11 -8 -20 0 -8 7 -63 10 -151 8 l-139 -3
-6 -49 c-6 -52 -4 -54 49 -94 l22 -17 -55 -324 c-30 -179 -55 -327 -56 -330
-2 -14 -98 608 -99 638 0 24 7 39 25 53 20 15 25 29 25 62 0 23 -5 47 -12 54
-9 9 -71 12 -222 11 -116 0 -217 -3 -223 -6z"/>
<path d="M6925 2596 c-16 -12 -20 -35 -28 -162 -10 -146 -10 -148 13 -166 29
-23 91 -23 119 0 16 12 25 40 36 106 17 99 20 106 41 106 12 0 14 -80 14 -565
0 -386 -3 -565 -10 -565 -6 0 -22 -11 -35 -25 -18 -17 -25 -35 -25 -64 0 -70
3 -71 250 -71 249 0 250 0 250 75 0 38 -4 47 -35 71 l-35 26 0 561 c0 498 2
560 15 546 8 -8 24 -53 36 -99 12 -47 26 -90 31 -97 14 -17 80 -26 111 -14 15
6 29 21 33 36 9 34 -14 286 -28 302 -16 20 -726 19 -753 -1z"/>
<path d="M7732 2598 c-7 -7 -12 -34 -12 -60 0 -45 2 -49 40 -73 l40 -25 0
-540 0 -540 -40 -25 c-38 -24 -40 -28 -40 -73 0 -26 5 -53 12 -60 17 -17 469
-17 486 0 7 7 12 33 12 59 0 42 -4 50 -35 73 l-35 27 2 542 3 542 30 14 c17 8
33 19 37 25 12 18 9 101 -4 114 -17 17 -479 17 -496 0z"/>
</g>
</svg>
